<svg width="427" height="432" viewBox="0 0 427 432" fill="none" xmlns="http://www.w3.org/2000/svg">
<path d="M289.078 17.5923C297.087 19.8453 299.188 21.2975 304.13 23.82L282.331 52.9311C283.906 45.0001 287.311 29.2344 289.078 17.5923Z" fill="#FBBC05"/>
<path d="M226.415 7.65825C234.718 7.13079 237.182 7.80475 242.68 8.54792L231.756 43.2368C230.615 35.2317 228.605 19.2283 226.415 7.65825Z" fill="#FBBC05"/>
<path d="M350.758 55.0426C355.138 62.1163 355.705 64.6068 357.642 69.8056L321.9 76.5267C328.421 71.7464 341.587 62.4285 350.758 55.0426Z" fill="#FBBC05"/>
<path fill-rule="evenodd" clip-rule="evenodd" d="M303.982 407.704C409.405 359.339 455.66 234.668 407.294 129.245L397.193 133.879C395.275 155.877 376.81 173.135 354.313 173.135C349.533 173.135 344.934 172.356 340.637 170.917C333.466 184.714 319.043 194.139 302.419 194.139C295.805 194.139 289.539 192.647 283.94 189.982C283.863 204.816 271.813 216.818 256.96 216.818C248.838 216.818 241.555 213.229 236.608 207.551L216.408 216.818L205.127 192.227C191.125 191.239 180.074 179.568 180.074 165.315C180.074 160.004 181.608 155.052 184.257 150.878C182.882 151.021 181.486 151.095 180.074 151.095C158.088 151.095 140.265 133.272 140.265 111.287C140.265 101.907 143.51 93.2846 148.937 86.4809C140.128 84.3438 133.587 76.4056 133.587 66.9396C133.587 60.82 136.321 55.3388 140.634 51.6509L128.835 25.9321C23.4116 74.2976 -22.8431 198.968 25.5224 304.392C73.8878 409.815 198.558 456.07 303.982 407.704Z" fill="#FFDD63"/>
<path d="M59.4417 149.962C71.0688 117.406 104.012 84.0747 119.031 71.4786L180.073 205.191C155.366 194.048 96.6486 167.403 59.4417 149.962Z" fill="#FBBC05"/>
<path d="M54.7446 278.184C40.4775 246.696 40.9982 199.834 43.0419 180.34L179.863 234.053C154.354 243.214 93.6177 264.865 54.7446 278.184Z" fill="#FBBC05"/>
<path d="M140.878 371.915C109.536 360.144 77.7326 327.584 65.7489 312.776L195.952 255.079C184.835 279.011 158.257 335.884 140.878 371.915Z" fill="#FBBC05"/>
<path d="M265.895 383.364C236.616 395.269 192.615 392.491 174.275 389.614L222.012 263.333C231.112 287.813 252.629 346.091 265.895 383.364Z" fill="#FBBC05"/>
<path d="M361.16 303.33C349.978 332.893 318.021 363.266 303.44 374.757L243.311 253.885C267.448 263.859 324.809 287.711 361.16 303.33Z" fill="#FBBC05"/>
<path d="M375.921 184.744C388.514 213.734 386.777 257.788 384.334 276.192L256.96 231.451C281.218 221.775 338.971 198.888 375.921 184.744Z" fill="#FBBC05"/>
</svg>
