<svg width="428" height="428" viewBox="0 0 428 428" fill="none" xmlns="http://www.w3.org/2000/svg">
<path d="M120.375 387.875C135.149 387.875 147.125 375.899 147.125 361.125C147.125 346.351 135.149 334.375 120.375 334.375C105.601 334.375 93.625 346.351 93.625 361.125C93.625 375.899 105.601 387.875 120.375 387.875Z" fill="white"/>
<path d="M321 387.875C335.774 387.875 347.75 375.899 347.75 361.125C347.75 346.351 335.774 334.375 321 334.375C306.226 334.375 294.25 346.351 294.25 361.125C294.25 375.899 306.226 387.875 321 387.875Z" fill="white"/>
<path d="M379.013 103.235C376.505 100.223 373.365 97.8008 369.816 96.1399C366.266 94.479 362.394 93.6203 358.475 93.625H78.0687L69.8759 48.7015C68.754 42.5399 65.5052 36.9676 60.6957 32.956C55.8863 28.9444 49.8214 26.7481 43.5585 26.75H13.375C9.82773 26.75 6.42575 28.1591 3.91745 30.6674C1.40915 33.1757 0 36.5777 0 40.125C0 43.6723 1.40915 47.0743 3.91745 49.5826C6.42575 52.0909 9.82773 53.5 13.375 53.5H43.5602L53.5736 108.416C53.6446 109.085 53.7658 109.748 53.936 110.398L85.8975 285.673C87.019 291.835 90.2675 297.407 95.0767 301.419C99.8858 305.431 105.95 307.627 112.213 307.625H329.31C335.576 307.628 341.644 305.429 346.454 301.414C351.264 297.399 354.512 291.822 355.629 285.657L384.794 125.158C385.5 121.303 385.347 117.341 384.348 113.552C383.349 109.763 381.527 106.24 379.013 103.235Z" fill="white"/>
</svg>
